<svg xmlns="http://www.w3.org/2000/svg" width="1500" height="1500" viewBox="0 0 1500 1500"><path d="M 656.286 97.397 C 647.486 100.260, 638.707 107.159, 635.830 113.473 C 634.826 115.676, 634.640 115.695, 617.944 115.213 C 599.299 114.674, 591.579 115.659, 583.885 119.559 C 578.218 122.430, 573.336 128.089, 571.858 133.500 C 570.149 139.754, 571.344 158.369, 573.882 165.046 C 578.895 178.230, 592.484 196.253, 637.562 249.503 C 652.928 267.654, 667.704 285.317, 670.398 288.753 C 673.091 292.189, 675.614 295, 676.004 295 C 676.959 295, 685.244 277.058, 690.549 263.500 C 698.975 241.965, 704.797 219.460, 708.660 193.500 C 711.247 176.115, 711.225 129.800, 708.626 122.500 C 704.793 111.731, 696.303 102.847, 686 98.824 C 679.051 96.111, 662.658 95.323, 656.286 97.397 M 816.487 98.799 C 801.435 104.004, 792.750 113.833, 790.051 128.720 C 788.425 137.687, 788.690 174.249, 790.491 189.436 C 793.311 213.218, 799.479 238.947, 807.569 260.673 C 812.430 273.729, 822.257 295.269, 823.505 295.603 C 824.052 295.750, 828.166 291.286, 832.648 285.685 C 837.129 280.083, 850.568 264.025, 862.512 250 C 902.354 203.217, 918.335 182.246, 924.636 168.484 C 926.585 164.227, 927.659 159.670, 928.371 152.650 C 930.488 131.744, 924.783 122.133, 907.500 117.493 C 902.772 116.223, 897.639 115.948, 883.285 116.191 L 865.070 116.500 862.179 111.942 C 856.106 102.368, 844.335 96.974, 829.645 97.033 C 824.592 97.053, 819.597 97.723, 816.487 98.799 M 1034.271 135.540 C 1021.258 139.045, 1013.270 148.426, 1010.931 162.949 C 1008.863 175.792, 1012.084 248.918, 1016.610 291.876 L 1018.299 307.907 1024.399 302.574 C 1035.209 293.124, 1052.851 280.912, 1082.005 262.698 C 1097.677 252.907, 1114.775 241.882, 1120 238.200 C 1133.043 229.006, 1146.831 215.161, 1150.571 207.500 C 1153.352 201.803, 1153.500 200.842, 1153.500 188.500 C 1153.500 176.554, 1153.288 175.054, 1150.887 170 C 1143.571 154.600, 1130.176 149.049, 1100.252 149.017 L 1084.005 149 1079.150 145.512 C 1065.725 135.868, 1047.824 131.890, 1034.271 135.540 M 439.265 136.489 C 432.998 138.240, 425.100 142.120, 419.160 146.366 L 414.821 149.468 400.660 149.177 C 377.453 148.700, 362.788 152.533, 354.180 161.327 C 347.805 167.840, 345.676 173.660, 345.181 185.925 C 344.619 199.851, 345.924 205.155, 352.067 213.901 C 360.962 226.568, 374.031 236.494, 417.926 263.924 C 448.247 282.872, 461.858 292.265, 472.763 301.767 C 477.356 305.770, 480.181 307.619, 480.447 306.798 C 481.056 304.924, 484.752 267.252, 486.167 248.500 C 486.831 239.700, 487.403 215.850, 487.437 195.500 C 487.499 158.945, 487.472 158.440, 485.201 153.500 C 482.285 147.161, 476.895 141.556, 470.500 138.215 C 466.193 135.965, 464.044 135.563, 455 135.315 C 448.019 135.123, 442.746 135.517, 439.265 136.489 M 748 187.501 C 748 187.777, 745.770 194.915, 743.044 203.363 C 740.319 211.811, 732.482 237.123, 725.630 259.611 C 693.274 365.799, 674.398 414.120, 645.699 464.228 L 637.263 478.956 645.768 492.728 C 679.227 546.908, 688.417 572.246, 696.547 632.726 L 697.115 636.952 700.873 634.580 C 707.209 630.580, 720.406 624.222, 726.935 622.022 C 746.526 615.422, 766.301 618.227, 790.909 631.095 C 796.084 633.802, 800.429 635.900, 800.564 635.758 C 800.700 635.616, 801.549 628.975, 802.451 621 C 808.199 570.185, 821.157 537.790, 855.083 489.418 L 862.155 479.335 852.121 462.554 C 834.441 432.984, 817.893 398.686, 804.501 363.853 C 791.378 329.723, 780.944 296.173, 763.024 230.500 C 750.874 185.971, 751.196 187, 749.422 187 C 748.640 187, 748 187.226, 748 187.501 M 213.446 212.087 C 212.670 213.343, 212.144 212.795, 222.500 221.500 C 238.423 234.885, 262.788 258.095, 276.185 272.641 C 314.468 314.210, 339.993 350.980, 363.900 399 C 398.905 469.312, 422.082 550.419, 445.484 684.500 C 452.507 724.738, 451.921 722, 453.507 722 C 454.408 722, 455.068 720.092, 455.495 716.250 C 458.951 685.155, 466.428 657.886, 474.773 645.941 C 487.021 628.409, 503.667 630.108, 530.987 651.679 L 538.813 657.857 543.561 649.679 C 557.050 626.440, 576.653 615.968, 604 617.391 C 615.658 617.998, 630.757 620.864, 645.750 625.317 C 650.330 626.677, 654 627.319, 654 626.760 C 654 624.658, 634.732 577.484, 626.486 559.396 C 576.373 449.476, 509.735 361.940, 431 302.602 C 405.063 283.055, 384.514 270.356, 355 255.636 C 315.316 235.844, 276.400 222.710, 231.777 214.051 C 213.895 210.581, 214.347 210.630, 213.446 212.087 M 1272 212.617 C 1255.322 215.788, 1235.677 220.428, 1221.136 224.630 C 1088.143 263.069, 978.818 357.669, 898.602 503.724 C 888.971 521.260, 870.380 559.681, 861.947 579.477 C 855.907 593.655, 843 626.337, 843 627.452 C 843 627.630, 847.501 626.462, 853.002 624.856 C 877.771 617.624, 898.724 615.365, 913 618.385 C 922.430 620.381, 932.962 625.552, 939.722 631.506 C 944.843 636.017, 954.854 649.856, 956.913 655.270 L 957.956 658.013 968.687 649.858 C 992.824 631.515, 1007.842 629.245, 1019.473 642.181 C 1029.591 653.435, 1037.182 677.617, 1041.165 711.281 C 1043.283 729.182, 1044.446 726.564, 1051.056 689 C 1087.028 484.602, 1123.943 387.999, 1202.007 293.975 C 1214.692 278.697, 1256.250 237.033, 1272.250 223.554 C 1278.713 218.110, 1284 213.058, 1284 212.328 C 1284 210.709, 1281.747 210.763, 1272 212.617" stroke="none" fill="#040404" fill-rule="evenodd"></path><path d="M 957.297 172.333 C 911.463 236.612, 898.668 253.897, 882.408 273.500 C 868.788 289.922, 850.673 308.564, 836.500 320.743 C 830.450 325.942, 825.529 330.489, 825.564 330.848 C 825.599 331.207, 829.936 340.275, 835.201 351 C 840.466 361.725, 852.980 388.275, 863.008 410 C 873.037 431.725, 882.575 452.150, 884.205 455.388 C 887.079 461.099, 887.221 461.219, 888.939 459.388 C 889.913 458.350, 899.206 447.375, 909.589 435 C 933.729 406.230, 964.824 369.815, 983.313 348.663 L 997.794 332.096 993.833 319.798 C 977.121 267.912, 967.900 224.403, 963.423 176.310 C 963.026 172.052, 962.246 168.925, 961.511 168.643 C 960.827 168.380, 958.931 170.041, 957.297 172.333 M 534.583 177.750 C 531.360 218.504, 521.247 266.824, 505.752 315.500 L 500.341 332.500 507.497 340.500 C 521.840 356.535, 592.629 439.501, 606.265 456.259 L 610.951 462.017 612.856 458.259 C 613.904 456.191, 622.744 437.175, 632.500 416 C 642.256 394.825, 655.369 366.950, 661.640 354.056 C 670.642 335.547, 672.774 330.377, 671.771 329.495 C 671.072 328.880, 666.648 325.166, 661.940 321.242 C 648.440 309.988, 624.725 285.052, 609.789 266.404 C 596.026 249.222, 581.288 229.263, 553.500 190.173 C 544.777 177.902, 537.825 169.058, 536.888 169.037 C 535.576 169.007, 535.146 170.630, 534.583 177.750 M 265.500 314.438 C 246.836 319.289, 232.866 327.811, 216.446 344.359 C 195.412 365.559, 180.886 391.807, 172.238 424.243 L 169.503 434.500 169.244 918.750 L 168.986 1403 450.014 1403 L 731.041 1403 730.740 1125.250 C 730.461 869.305, 730.302 846.362, 728.707 833 C 721.645 773.844, 708.250 725.713, 689.836 693.339 C 683.235 681.733, 672.190 667.221, 665.252 661.037 L 659.696 656.085 649.472 670.792 C 637.462 688.071, 628.736 702.964, 623.037 715.915 C 618.419 726.409, 612.788 744.238, 611.008 754 C 609.225 763.777, 609.218 763.785, 606.463 759.731 C 605.108 757.737, 604 755.862, 604 755.564 C 604 755.267, 603.347 754.230, 602.548 753.261 C 601.750 752.293, 597.272 746.325, 592.597 740 C 566.403 704.560, 538.638 682.985, 504.211 671.319 C 494.889 668.160, 492.789 667.743, 492.065 668.905 C 489.934 672.328, 486.275 703.323, 485.385 725.500 C 482.883 787.827, 499.673 850.871, 531.446 898.448 C 563.461 946.388, 613.145 982.010, 669.750 997.606 L 676 999.328 676 1168.664 L 676 1338 450 1338 L 224 1338 224 897.894 C 224 498.677, 224.148 457.218, 225.592 451.647 C 233.552 420.926, 265.743 382.317, 302 360.005 C 305.025 358.144, 307.666 356.503, 307.868 356.359 C 308.071 356.215, 304.808 346.691, 300.618 335.195 C 296.428 323.699, 293 313.778, 293 313.147 C 293 311.022, 275.477 311.844, 265.500 314.438 M 1207.107 314.250 C 1201.102 330.276, 1191.908 356.223, 1192.166 356.416 C 1192.350 356.554, 1196.325 359.151, 1201 362.188 C 1223.750 376.965, 1243.765 396.405, 1258.098 417.645 C 1264.493 427.123, 1272.340 443.457, 1274.431 451.644 C 1275.845 457.180, 1276 501.368, 1276 897.894 L 1276 1338 1050 1338 L 824 1338 824 1168.500 C 824 1015.473, 824.152 999, 825.563 999 C 826.422 999, 833.960 996.724, 842.313 993.942 C 859.075 988.359, 882.448 977.480, 896.817 968.572 C 921.357 953.359, 947.803 928.374, 964.634 904.500 C 990.411 867.937, 1006.458 824.637, 1012.656 774.914 C 1014.675 758.716, 1014.985 716.524, 1013.195 701.500 C 1011.299 685.590, 1008.878 670.421, 1008.010 669.016 C 1006.914 667.244, 990.909 672.422, 977.276 678.959 C 948.177 692.914, 924.827 714.731, 898.304 752.750 C 894.755 757.837, 891.547 762, 891.175 761.999 C 890.804 761.999, 889.685 757.892, 888.690 752.873 C 883.186 725.127, 871.104 700.389, 844.178 661.733 L 840.161 655.967 832.172 664.010 C 801.609 694.779, 781.051 751.854, 771.304 833 C 769.694 846.399, 769.539 868.591, 769.260 1125.250 L 768.959 1403 1049.979 1403 L 1331 1403 1330.996 923.250 C 1330.992 400.454, 1331.390 436.946, 1325.469 416.470 C 1317.561 389.122, 1300.466 360.222, 1281.368 341.917 C 1261.194 322.579, 1237.651 312, 1214.792 312 C 1208.614 312, 1207.869 312.218, 1207.107 314.250" stroke="none" fill="#9a140d" fill-rule="evenodd"></path></svg>